<svg width="8" height="8" viewBox="0 0 8 8" fill="none" xmlns="http://www.w3.org/2000/svg">
<path fill-rule="evenodd" clip-rule="evenodd" d="M8.00089 4C8.00089 4.13261 7.94822 4.25979 7.85445 4.35355C7.76068 4.44732 7.6335 4.5 7.50089 4.5H1.70789L3.85489 6.646C3.90138 6.69249 3.93826 6.74768 3.96342 6.80842C3.98858 6.86916 4.00152 6.93426 4.00152 7C4.00152 7.06574 3.98858 7.13084 3.96342 7.19158C3.93826 7.25232 3.90138 7.30751 3.85489 7.354C3.80841 7.40049 3.75322 7.43736 3.69248 7.46252C3.63174 7.48768 3.56664 7.50063 3.50089 7.50063C3.43515 7.50063 3.37005 7.48768 3.30931 7.46252C3.24857 7.43736 3.19338 7.40049 3.14689 7.354L0.146894 4.354C0.10033 4.30755 0.0633875 4.25238 0.0381811 4.19163C0.0129746 4.13089 0 4.06577 0 4C0 3.93423 0.0129746 3.86911 0.0381811 3.80837C0.0633875 3.74762 0.10033 3.69245 0.146894 3.646L3.14689 0.646C3.24078 0.552114 3.36812 0.499369 3.50089 0.499369C3.63367 0.499369 3.76101 0.552114 3.85489 0.646C3.94878 0.739887 4.00152 0.867225 4.00152 1C4.00152 1.13278 3.94878 1.26011 3.85489 1.354L1.70789 3.5H7.50089C7.6335 3.5 7.76068 3.55268 7.85445 3.64645C7.94822 3.74022 8.00089 3.86739 8.00089 4Z" fill="#22496C"/>
</svg>
