<svg width="24" height="24" viewBox="0 0 24 24" fill="none" xmlns="http://www.w3.org/2000/svg">
<g clip-path="url(#clip0_106_69)">
<path fill-rule="evenodd" clip-rule="evenodd" d="M11.8182 18.75C11.8182 18.9489 11.7559 19.1397 11.6451 19.2803C11.5343 19.421 11.384 19.5 11.2273 19.5H1.77273C1.61601 19.5 1.46571 19.421 1.35489 19.2803C1.24407 19.1397 1.18182 18.9489 1.18182 18.75V5.25C1.18182 5.05109 1.24407 4.86032 1.35489 4.71967C1.46571 4.57902 1.61601 4.5 1.77273 4.5H11.2273C11.384 4.5 11.5343 4.57902 11.6451 4.71967C11.7559 4.86032 11.8182 5.05109 11.8182 5.25V8.25C11.8182 8.44891 11.8804 8.63968 11.9913 8.78033C12.1021 8.92098 12.2524 9 12.4091 9C12.5658 9 12.7161 8.92098 12.8269 8.78033C12.9377 8.63968 13 8.44891 13 8.25V5.25C13 4.65326 12.8132 4.08097 12.4808 3.65901C12.1483 3.23705 11.6974 3 11.2273 3H1.77273C1.30257 3 0.851671 3.23705 0.51922 3.65901C0.186769 4.08097 0 4.65326 0 5.25L0 18.75C0 19.3467 0.186769 19.919 0.51922 20.341C0.851671 20.7629 1.30257 21 1.77273 21H11.2273C11.6974 21 12.1483 20.7629 12.4808 20.341C12.8132 19.919 13 19.3467 13 18.75V15.75C13 15.5511 12.9377 15.3603 12.8269 15.2197C12.7161 15.079 12.5658 15 12.4091 15C12.2524 15 12.1021 15.079 11.9913 15.2197C11.8804 15.3603 11.8182 15.5511 11.8182 15.75V18.75Z" fill="#BE1522"/>
<path fill-rule="evenodd" clip-rule="evenodd" d="M20.781 12.531C20.8508 12.4613 20.9063 12.3785 20.9441 12.2874C20.9819 12.1963 21.0013 12.0986 21.0013 12C21.0013 11.9013 20.9819 11.8036 20.9441 11.7125C20.9063 11.6214 20.8508 11.5386 20.781 11.469L16.281 6.96897C16.1402 6.82814 15.9492 6.74902 15.75 6.74902C15.5508 6.74902 15.3598 6.82814 15.219 6.96897C15.0782 7.1098 14.9991 7.30081 14.9991 7.49997C14.9991 7.69913 15.0782 7.89014 15.219 8.03097L18.4395 11.25H5.25C5.05109 11.25 4.86032 11.329 4.71967 11.4696C4.57902 11.6103 4.5 11.8011 4.5 12C4.5 12.1989 4.57902 12.3896 4.71967 12.5303C4.86032 12.671 5.05109 12.75 5.25 12.75H18.4395L15.219 15.969C15.0782 16.1098 14.9991 16.3008 14.9991 16.5C14.9991 16.6991 15.0782 16.8901 15.219 17.031C15.3598 17.1718 15.5508 17.2509 15.75 17.2509C15.9492 17.2509 16.1402 17.1718 16.281 17.031L20.781 12.531Z" fill="#BE1522"/>
</g>
<defs>
<clipPath id="clip0_106_69">
<rect width="24" height="24" fill="white"/>
</clipPath>
</defs>
</svg>
