<svg width="20" height="20" viewBox="0 0 20 20" fill="none" xmlns="http://www.w3.org/2000/svg">
<path fill-rule="evenodd" clip-rule="evenodd" d="M14.1926 2.05749C14.2508 2.11555 14.297 2.18451 14.3285 2.26045C14.36 2.33638 14.3763 2.41778 14.3763 2.49999C14.3763 2.5822 14.36 2.6636 14.3285 2.73953C14.297 2.81546 14.2508 2.88443 14.1926 2.94249L7.13389 9.99999L14.1926 17.0575C14.31 17.1748 14.3759 17.334 14.3759 17.5C14.3759 17.666 14.31 17.8251 14.1926 17.9425C14.0753 18.0598 13.9161 18.1258 13.7501 18.1258C13.5842 18.1258 13.425 18.0598 13.3076 17.9425L5.80764 10.4425C5.74944 10.3844 5.70326 10.3155 5.67175 10.2395C5.64024 10.1636 5.62402 10.0822 5.62402 9.99999C5.62402 9.91778 5.64024 9.83638 5.67175 9.76045C5.70326 9.68451 5.74944 9.61554 5.80764 9.55749L13.3076 2.05749C13.3657 1.99928 13.4347 1.95311 13.5106 1.9216C13.5865 1.89009 13.6679 1.87387 13.7501 1.87387C13.8323 1.87387 13.9137 1.89009 13.9897 1.9216C14.0656 1.95311 14.1346 1.99928 14.1926 2.05749Z" fill="#22496C"/>
</svg>
