<svg width="20" height="20" viewBox="0 0 20 20" fill="none" xmlns="http://www.w3.org/2000/svg">
<path fill-rule="evenodd" clip-rule="evenodd" d="M7.5 15.625C7.5 15.7908 7.56585 15.9497 7.68306 16.0669C7.80027 16.1842 7.95924 16.25 8.125 16.25H18.125C18.2908 16.25 18.4497 16.1842 18.5669 16.0669C18.6842 15.9497 18.75 15.7908 18.75 15.625V4.375C18.75 4.20924 18.6842 4.05027 18.5669 3.93306C18.4497 3.81585 18.2908 3.75 18.125 3.75L8.125 3.75C7.95924 3.75 7.80027 3.81585 7.68306 3.93306C7.56585 4.05027 7.5 4.20924 7.5 4.375V6.875C7.5 7.04076 7.43415 7.19973 7.31694 7.31694C7.19973 7.43415 7.04076 7.5 6.875 7.5C6.70924 7.5 6.55027 7.43415 6.43306 7.31694C6.31585 7.19973 6.25 7.04076 6.25 6.875V4.375C6.25 3.87772 6.44754 3.40081 6.79917 3.04917C7.15081 2.69754 7.62772 2.5 8.125 2.5L18.125 2.5C18.6223 2.5 19.0992 2.69754 19.4508 3.04917C19.8025 3.40081 20 3.87772 20 4.375V15.625C20 16.1223 19.8025 16.5992 19.4508 16.9508C19.0992 17.3025 18.6223 17.5 18.125 17.5H8.125C7.62772 17.5 7.15081 17.3025 6.79917 16.9508C6.44754 16.5992 6.25 16.1223 6.25 15.625V13.125C6.25 12.9592 6.31585 12.8003 6.43306 12.6831C6.55027 12.5658 6.70924 12.5 6.875 12.5C7.04076 12.5 7.19973 12.5658 7.31694 12.6831C7.43415 12.8003 7.5 12.9592 7.5 13.125V15.625Z" fill="white"/>
<path fill-rule="evenodd" clip-rule="evenodd" d="M14.8175 9.5575C14.8757 9.61556 14.9219 9.68453 14.9534 9.76046C14.9849 9.83639 15.0011 9.91779 15.0011 10C15.0011 10.0822 14.9849 10.1636 14.9534 10.2395C14.9219 10.3155 14.8757 10.3844 14.8175 10.4425L11.0675 14.1925C10.9501 14.3099 10.791 14.3758 10.625 14.3758C10.459 14.3758 10.2999 14.3099 10.1825 14.1925C10.0651 14.0751 9.99921 13.916 9.99921 13.75C9.99921 13.584 10.0651 13.4249 10.1825 13.3075L12.8662 10.625L1.875 10.625C1.70924 10.625 1.55026 10.5592 1.43305 10.4419C1.31584 10.3247 1.25 10.1658 1.25 10C1.25 9.83424 1.31584 9.67527 1.43305 9.55806C1.55026 9.44085 1.70924 9.375 1.875 9.375L12.8662 9.375L10.1825 6.6925C10.1244 6.63439 10.0783 6.56541 10.0468 6.48948C10.0154 6.41356 9.99921 6.33218 9.99921 6.25C9.99921 6.16782 10.0154 6.08645 10.0468 6.01052C10.0783 5.9346 10.1244 5.86561 10.1825 5.8075C10.2406 5.74939 10.3096 5.7033 10.3855 5.67185C10.4614 5.6404 10.5428 5.62421 10.625 5.62421C10.7072 5.62421 10.7886 5.6404 10.8645 5.67185C10.9404 5.7033 11.0094 5.74939 11.0675 5.8075L14.8175 9.5575Z" fill="white"/>
</svg>
