<svg width="13" height="12" viewBox="0 0 13 12" fill="none" xmlns="http://www.w3.org/2000/svg">
<path fill-rule="evenodd" clip-rule="evenodd" d="M12.9994 6C12.9994 6.19891 12.9204 6.38968 12.7797 6.53033C12.6391 6.67098 12.4483 6.75 12.2494 6.75H3.55989L6.78039 9.969C6.85012 10.0387 6.90543 10.1215 6.94317 10.2126C6.98091 10.3037 7.00033 10.4014 7.00033 10.5C7.00033 10.5986 6.98091 10.6963 6.94317 10.7874C6.90543 10.8785 6.85012 10.9613 6.78039 11.031C6.71066 11.1007 6.62787 11.156 6.53676 11.1938C6.44565 11.2315 6.348 11.2509 6.24939 11.2509C6.15077 11.2509 6.05312 11.2315 5.96201 11.1938C5.8709 11.156 5.78812 11.1007 5.71839 11.031L1.21839 6.531C1.14854 6.46133 1.09313 6.37857 1.05532 6.28745C1.01751 6.19633 0.998047 6.09865 0.998047 6C0.998047 5.90135 1.01751 5.80367 1.05532 5.71255C1.09313 5.62143 1.14854 5.53867 1.21839 5.469L5.71839 0.969002C5.85922 0.828172 6.05022 0.749054 6.24939 0.749054C6.44855 0.749054 6.63956 0.828172 6.78039 0.969002C6.92122 1.10983 7.00033 1.30084 7.00033 1.5C7.00033 1.69917 6.92122 1.89017 6.78039 2.031L3.55989 5.25H12.2494C12.4483 5.25 12.6391 5.32902 12.7797 5.46967C12.9204 5.61032 12.9994 5.80109 12.9994 6Z" fill="#00476E"/>
</svg>
