<svg width="22" height="22" viewBox="0 0 22 22" fill="none" xmlns="http://www.w3.org/2000/svg">
<path d="M14.9251 11.2007C14.9891 11.2646 15.0399 11.3405 15.0746 11.424C15.1093 11.5075 15.1271 11.5971 15.1271 11.6875C15.1271 11.7779 15.1093 11.8675 15.0746 11.951C15.0399 12.0345 14.9891 12.1104 14.9251 12.1742L10.8001 16.2992C10.7363 16.3633 10.6604 16.4141 10.5769 16.4487C10.4933 16.4834 10.4038 16.5012 10.3134 16.5012C10.2229 16.5012 10.1334 16.4834 10.0499 16.4487C9.96635 16.4141 9.89048 16.3633 9.82662 16.2992L7.76412 14.2367C7.7002 14.1728 7.64949 14.0969 7.6149 14.0134C7.58031 13.9299 7.5625 13.8404 7.5625 13.75C7.5625 13.6596 7.58031 13.5701 7.6149 13.4866C7.64949 13.403 7.7002 13.3272 7.76412 13.2632C7.89321 13.1341 8.0683 13.0616 8.25087 13.0616C8.34127 13.0616 8.43078 13.0794 8.5143 13.114C8.59781 13.1486 8.6737 13.1993 8.73762 13.2632L10.3134 14.8404L13.9516 11.2007C14.0155 11.1367 14.0913 11.0859 14.1749 11.0513C14.2584 11.0166 14.3479 10.9988 14.4384 10.9988C14.5288 10.9988 14.6183 11.0166 14.7019 11.0513C14.7854 11.0859 14.8613 11.1367 14.9251 11.2007Z" fill="white"/>
<path d="M4.8125 0C4.99484 0 5.1697 0.0724328 5.29864 0.201364C5.42757 0.330295 5.5 0.505164 5.5 0.6875V1.375H16.5V0.6875C16.5 0.505164 16.5724 0.330295 16.7014 0.201364C16.8303 0.0724328 17.0052 0 17.1875 0C17.3698 0 17.5447 0.0724328 17.6736 0.201364C17.8026 0.330295 17.875 0.505164 17.875 0.6875V1.375H19.25C19.9793 1.375 20.6788 1.66473 21.1945 2.18046C21.7103 2.69618 22 3.39565 22 4.125V19.25C22 19.9793 21.7103 20.6788 21.1945 21.1945C20.6788 21.7103 19.9793 22 19.25 22H2.75C2.02065 22 1.32118 21.7103 0.805456 21.1945C0.289731 20.6788 0 19.9793 0 19.25V4.125C0 3.39565 0.289731 2.69618 0.805456 2.18046C1.32118 1.66473 2.02065 1.375 2.75 1.375H4.125V0.6875C4.125 0.505164 4.19743 0.330295 4.32636 0.201364C4.4553 0.0724328 4.63016 0 4.8125 0V0ZM2.75 2.75C2.38533 2.75 2.03559 2.89487 1.77773 3.15273C1.51987 3.41059 1.375 3.76033 1.375 4.125V19.25C1.375 19.6147 1.51987 19.9644 1.77773 20.2223C2.03559 20.4801 2.38533 20.625 2.75 20.625H19.25C19.6147 20.625 19.9644 20.4801 20.2223 20.2223C20.4801 19.9644 20.625 19.6147 20.625 19.25V4.125C20.625 3.76033 20.4801 3.41059 20.2223 3.15273C19.9644 2.89487 19.6147 2.75 19.25 2.75H2.75Z" fill="white"/>
<path d="M3.4375 5.5C3.4375 5.31766 3.50993 5.1428 3.63886 5.01386C3.7678 4.88493 3.94266 4.8125 4.125 4.8125H17.875C18.0573 4.8125 18.2322 4.88493 18.3611 5.01386C18.4901 5.1428 18.5625 5.31766 18.5625 5.5V6.875C18.5625 7.05734 18.4901 7.2322 18.3611 7.36114C18.2322 7.49007 18.0573 7.5625 17.875 7.5625H4.125C3.94266 7.5625 3.7678 7.49007 3.63886 7.36114C3.50993 7.2322 3.4375 7.05734 3.4375 6.875V5.5Z" fill="white"/>
</svg>
