<svg width="15" height="12" viewBox="0 0 15 12" fill="none" xmlns="http://www.w3.org/2000/svg">
<path d="M5.74387 11.154C5.60015 11.2941 5.40538 11.3728 5.20232 11.3728C4.99925 11.3728 4.80449 11.2941 4.66077 11.154L0.336632 6.93067C0.229913 6.82654 0.145253 6.70291 0.0874915 6.56682C0.0297302 6.43074 0 6.28487 0 6.13756C0 5.99025 0.0297302 5.84438 0.0874915 5.7083C0.145253 5.57221 0.229913 5.44858 0.336632 5.34445L0.878004 4.81759C0.984637 4.71338 1.11126 4.63072 1.25062 4.57432C1.38999 4.51791 1.53938 4.48888 1.69024 4.48888C1.8411 4.48888 1.99049 4.51791 2.12986 4.57432C2.26922 4.63072 2.39584 4.71338 2.50248 4.81759L5.20214 7.45191L12.4975 0.328704C12.6042 0.224498 12.7308 0.141832 12.8701 0.0854308C13.0095 0.02903 13.1589 0 13.3098 0C13.4606 0 13.61 0.02903 13.7494 0.0854308C13.8887 0.141832 14.0154 0.224498 14.122 0.328704L14.6634 0.857325C14.7701 0.961446 14.8547 1.08508 14.9125 1.22117C14.9703 1.35725 15 1.50312 15 1.65043C15 1.79774 14.9703 1.94361 14.9125 2.07969C14.8547 2.21578 14.7701 2.33942 14.6634 2.44354L5.74387 11.154Z" fill="#22496C"/>
</svg>
