<svg width="32" height="32" viewBox="0 0 32 32" fill="none" xmlns="http://www.w3.org/2000/svg">
<path d="M17.0003 13C17.0003 12.7348 16.8949 12.4804 16.7074 12.2929C16.5199 12.1054 16.2655 12 16.0003 12C15.7351 12 15.4807 12.1054 15.2932 12.2929C15.1056 12.4804 15.0003 12.7348 15.0003 13V20.586L12.7083 18.292C12.6153 18.199 12.5049 18.1253 12.3835 18.075C12.262 18.0246 12.1318 17.9987 12.0003 17.9987C11.8688 17.9987 11.7386 18.0246 11.6171 18.075C11.4956 18.1253 11.3853 18.199 11.2923 18.292C11.1993 18.385 11.1256 18.4954 11.0752 18.6168C11.0249 18.7383 10.999 18.8685 10.999 19C10.999 19.1315 11.0249 19.2617 11.0752 19.3832C11.1256 19.5046 11.1993 19.615 11.2923 19.708L15.2923 23.708C15.3852 23.8011 15.4955 23.875 15.617 23.9254C15.7385 23.9758 15.8688 24.0018 16.0003 24.0018C16.1318 24.0018 16.2621 23.9758 16.3836 23.9254C16.505 23.875 16.6154 23.8011 16.7083 23.708L20.7083 19.708C20.8013 19.615 20.875 19.5046 20.9253 19.3832C20.9757 19.2617 21.0015 19.1315 21.0015 19C21.0015 18.8685 20.9757 18.7383 20.9253 18.6168C20.875 18.4954 20.8013 18.385 20.7083 18.292C20.6153 18.199 20.5049 18.1253 20.3835 18.075C20.262 18.0246 20.1318 17.9987 20.0003 17.9987C19.8688 17.9987 19.7386 18.0246 19.6171 18.075C19.4956 18.1253 19.3853 18.199 19.2923 18.292L17.0003 20.586V13Z" fill="#22496C"/>
<path d="M28 28V9L19 0H8C6.93913 0 5.92172 0.421427 5.17157 1.17157C4.42143 1.92172 4 2.93913 4 4V28C4 29.0609 4.42143 30.0783 5.17157 30.8284C5.92172 31.5786 6.93913 32 8 32H24C25.0609 32 26.0783 31.5786 26.8284 30.8284C27.5786 30.0783 28 29.0609 28 28ZM19 6C19 6.79565 19.3161 7.55871 19.8787 8.12132C20.4413 8.68393 21.2044 9 22 9H26V28C26 28.5304 25.7893 29.0391 25.4142 29.4142C25.0391 29.7893 24.5304 30 24 30H8C7.46957 30 6.96086 29.7893 6.58579 29.4142C6.21071 29.0391 6 28.5304 6 28V4C6 3.46957 6.21071 2.96086 6.58579 2.58579C6.96086 2.21071 7.46957 2 8 2H19V6Z" fill="#22496C"/>
</svg>
