<svg width="24" height="23" viewBox="0 0 24 23" fill="none" xmlns="http://www.w3.org/2000/svg">
<path d="M11.9998 4.12201L10.9243 3.01651C8.39984 0.421512 3.77084 1.31701 2.09984 4.57951C1.31534 6.11401 1.13834 8.32951 2.57084 11.157C3.95084 13.8795 6.82184 17.1405 11.9998 20.6925C17.1778 17.1405 20.0473 13.8795 21.4288 11.157C22.8613 8.32801 22.6858 6.11401 21.8998 4.57951C20.2288 1.31701 15.5998 0.420012 13.0753 3.01501L11.9998 4.12201ZM11.9998 22.5C-10.9997 7.30201 4.91834 -4.55999 11.7358 1.71451C11.8258 1.79701 11.9143 1.88251 11.9998 1.97101C12.0845 1.88259 12.1725 1.79753 12.2638 1.71601C19.0798 -4.56299 34.9993 7.30051 11.9998 22.5Z" fill="#BE1522"/>
</svg>