<svg width="23" height="26" viewBox="0 0 23 26" fill="none" xmlns="http://www.w3.org/2000/svg">
<path d="M12.3295 1.13467C12.2509 1.05236 12.1576 0.987053 12.0548 0.942495C11.952 0.897936 11.8418 0.875 11.7305 0.875C11.6192 0.875 11.509 0.897936 11.4062 0.942495C11.3034 0.987053 11.21 1.05236 11.1314 1.13467L0.977547 11.7411C0.899021 11.8234 0.836781 11.921 0.794386 12.0283C0.751991 12.1357 0.730272 12.2508 0.73047 12.3669V24.7411C0.73047 24.9755 0.819618 25.2004 0.978303 25.3661C1.13699 25.5319 1.35221 25.625 1.57662 25.625H9.19201C9.41642 25.625 9.63164 25.5319 9.79033 25.3661C9.94901 25.2004 10.0382 24.9755 10.0382 24.7411V17.6702H13.4228V24.7411C13.4228 24.9755 13.5119 25.2004 13.6706 25.3661C13.8293 25.5319 14.0445 25.625 14.2689 25.625H21.8843C22.1087 25.625 22.324 25.5319 22.4826 25.3661C22.6413 25.2004 22.7305 24.9755 22.7305 24.7411V12.3669C22.7307 12.2508 22.7089 12.1357 22.6666 12.0283C22.6242 11.921 22.5619 11.8234 22.4834 11.7411L20.192 9.34938V3.5282C20.192 3.29378 20.1029 3.06896 19.9442 2.9032C19.7855 2.73745 19.5703 2.64432 19.3459 2.64432H17.6535C17.4291 2.64432 17.2139 2.73745 17.0552 2.9032C16.8965 3.06896 16.8074 3.29378 16.8074 3.5282V5.81389L12.3295 1.13467ZM2.42278 23.8573V12.7328L11.7305 3.01025L21.0382 12.7328V23.8573H15.1151V16.7863C15.1151 16.5519 15.0259 16.327 14.8673 16.1613C14.7086 15.9955 14.4933 15.9024 14.2689 15.9024H9.19201C8.96759 15.9024 8.75237 15.9955 8.59369 16.1613C8.435 16.327 8.34585 16.5519 8.34585 16.7863V23.8573H2.42278Z" fill="#00476E"/>
</svg>
