<svg width="61" height="77" viewBox="0 0 61 77" fill="none" xmlns="http://www.w3.org/2000/svg">
<path d="M32.0824 71.7731L32.0455 33.9934L36.7513 38.7309V71.3668L36.7421 70.4433V77H32.0824V71.7731Z" fill="#BE1622"/>
<path d="M61 0V77H40.7928V72.3272H40.802V42.7573L45.4801 47.4393L45.4709 72.3272H56.3219V4.68206H4.67811V72.3272H14.9755V51.1887L19.6444 46.5158V77H0V0H61Z" fill="#24486C"/>
<path d="M28.0226 38.1214V77H23.3537V42.7942L28.0226 38.1214ZM34.38 10.934L36.4376 12.8456L36.8898 12.4208C36.9462 12.3438 37.0189 12.2802 37.1028 12.2347C37.1867 12.1891 37.2796 12.1628 37.3749 12.1575C37.4702 12.1522 37.5655 12.1681 37.6539 12.204C37.7423 12.24 37.8217 12.2951 37.8863 12.3654C37.9583 12.427 38.0162 12.5035 38.0558 12.5895C38.0955 12.6756 38.1161 12.7693 38.1161 12.8641C38.1161 12.9589 38.0955 13.0526 38.0558 13.1387C38.0162 13.2248 37.9583 13.3012 37.8863 13.3628C37.2865 14.0277 36.6683 14.6834 36.0409 15.3391C33.8725 17.6755 31.7042 19.9565 29.5819 22.3298C29.2959 22.6346 29.0652 22.9855 28.7515 23.3826C28.8438 24.0013 28.7515 24.0844 28.0595 24.1398C27.7088 24.1398 27.5243 24.6201 27.4966 24.9525C27.432 25.6728 27.8565 26.2269 27.9857 26.8734C28.066 27.273 28.0572 27.6855 27.9599 28.0814C27.8626 28.4773 27.6792 28.8468 27.4228 29.1636C26.6477 30.0871 24.8577 30.0871 23.8612 29.2652L23.2614 28.7665C23.2632 28.8853 23.24 29.0032 23.1933 29.1125C23.1467 29.2218 23.0777 29.3202 22.9907 29.4011C22.9038 29.482 22.8008 29.5438 22.6885 29.5824C22.5762 29.6211 22.457 29.6357 22.3387 29.6253C22.2118 29.5887 22.0942 29.5252 21.9939 29.4392C21.8936 29.3532 21.813 29.2466 21.7574 29.1267C21.6282 28.748 22.0896 28.2032 22.634 27.9723C22.4274 27.8743 22.2324 27.7535 22.0527 27.6121C21.6962 27.2672 21.4526 26.8222 21.3537 26.3359C21.2549 25.8496 21.3056 25.3448 21.499 24.8879C21.6375 24.5277 21.7759 24.0383 22.0619 23.872C22.4759 23.5699 22.9601 23.3784 23.4686 23.3153C23.9771 23.2523 24.4932 23.32 24.9684 23.5119C25.3954 23.6706 25.855 23.7213 26.3063 23.6596C26.4326 23.6037 26.5437 23.5183 26.6304 23.4107C26.717 23.3031 26.7768 23.1763 26.8046 23.0409C26.8876 22.2929 26.8876 22.2467 27.4782 22.2744L29.6742 20.3628C28.364 19.0607 23.6397 13.9723 23.2153 13.4829C22.7908 12.9934 22.7078 12.7256 23.1322 12.347C23.5567 11.9683 23.9073 12.1715 24.2118 12.5317L24.5071 12.8918L26.6293 10.9248H26.8415L27.0722 12.4116L28.5024 12.7071V12.9103L26.4355 14.8773L30.4862 19.31L34.5461 14.8681L32.5069 12.9288V12.7071L33.9556 12.3562L34.1401 10.9248L34.38 10.934ZM25.3375 28.8588C25.7711 28.8641 26.1898 28.7003 26.5049 28.4021C26.82 28.104 27.0069 27.6948 27.026 27.2612C27.0102 26.9359 26.897 26.6229 26.7012 26.3627C26.5054 26.1025 26.2361 25.9072 25.928 25.8021C25.6817 25.6909 25.4778 25.503 25.3467 25.2665C25.2245 24.9661 25.0149 24.7095 24.745 24.53C24.4751 24.3504 24.1575 24.2563 23.8335 24.2599C23.5276 24.3164 23.2391 24.4435 22.9909 24.6311C22.7426 24.8186 22.5415 25.0615 22.4033 25.3404C22.2704 25.7188 22.2928 26.1345 22.4658 26.4964C22.6388 26.8582 22.9482 27.1366 23.326 27.2705C23.4919 27.3123 23.6447 27.3951 23.7704 27.5112C23.8961 27.6274 23.9908 27.7732 24.0457 27.9354C24.1415 28.2026 24.3165 28.4342 24.5473 28.5992C24.7782 28.7643 25.0538 28.8548 25.3375 28.8588Z" fill="#BE1622"/>
<path d="M38.3199 28.0647C38.553 27.9118 38.7722 27.7387 38.975 27.5475C39.7963 26.624 39.8978 24.6293 39.0858 23.9829C38.7665 23.7111 38.3936 23.5097 37.9914 23.392C37.5891 23.2742 37.1666 23.2427 36.7513 23.2995C36.1423 23.4195 35.5149 23.4749 34.9059 23.6319C34.8192 23.6682 34.7246 23.6817 34.6312 23.6713C34.5378 23.6608 34.4485 23.6267 34.3719 23.5722C34.2953 23.5177 34.2338 23.4446 34.1933 23.3597C34.1527 23.2748 34.1344 23.181 34.1401 23.0871C34.2693 22.2929 33.854 22.2467 33.4019 22.2929L31.9164 20.8707L30.9937 21.7942C31.4273 22.3298 31.8241 22.81 32.2578 23.3272C32.1378 23.9275 32.2578 24.0567 32.9037 24.1029C33.018 24.1168 33.1264 24.1615 33.2174 24.2322C33.3878 24.4883 33.4856 24.786 33.5002 25.0934C33.5149 25.4008 33.4458 25.7064 33.3004 25.9776C33.0624 26.4325 32.9498 26.9426 32.9741 27.4555C32.9985 27.9684 33.1589 28.4655 33.4388 28.8958C33.5865 29.1821 34.0109 29.3483 34.3615 29.5145C34.8017 29.7441 35.3003 29.8369 35.7935 29.781C36.2867 29.725 36.752 29.5229 37.1296 29.2005C37.305 29.062 37.471 28.9143 37.7294 28.6926C37.7134 28.809 37.7227 28.9276 37.7569 29.04C37.791 29.1524 37.8492 29.2561 37.9272 29.3439C38.0053 29.4317 38.1014 29.5015 38.2091 29.5485C38.3167 29.5955 38.4332 29.6185 38.5506 29.6161C38.68 29.5861 38.8014 29.5285 38.9065 29.4472C39.0116 29.3659 39.0979 29.2629 39.1596 29.1451C39.3441 28.7942 38.8828 28.2032 38.3199 28.0647ZM37.6002 27.3259C37.3376 27.4446 37.1206 27.6455 36.982 27.8984C36.8532 28.1704 36.651 28.4009 36.3984 28.5641C36.1457 28.7272 35.8525 28.8165 35.5518 28.8219C35.189 28.7948 34.8434 28.656 34.5626 28.4245C34.2817 28.193 34.0794 27.8802 33.9832 27.529C33.9255 27.18 33.9917 26.8217 34.1703 26.5163C34.349 26.211 34.6288 25.9779 34.9613 25.8575C35.1366 25.8114 35.2976 25.7222 35.4297 25.598C35.5618 25.4739 35.6609 25.3186 35.7179 25.1465C35.8781 24.7889 36.1698 24.5069 36.5324 24.359C36.895 24.2111 37.3005 24.2087 37.6648 24.3523C37.9475 24.4956 38.1885 24.7094 38.3646 24.9731C38.5408 25.2367 38.6462 25.5413 38.6706 25.8575C38.6527 26.1795 38.5421 26.4895 38.3522 26.75C38.1623 27.0106 37.9011 27.2106 37.6002 27.3259Z" fill="#BE1622"/>
</svg>
