<svg width="101" height="106" viewBox="0 0 101 106" fill="none" xmlns="http://www.w3.org/2000/svg">
<g clip-path="url(#clip0_28_566)">
<path d="M74.8835 106H0.873237C0.64164 106 0.419529 105.908 0.255765 105.745C0.0920015 105.582 0 105.361 0 105.13L0 9.02413C0 8.79331 0.0920015 8.57195 0.255765 8.40875C0.419529 8.24554 0.64164 8.15385 0.873237 8.15385H74.8835C75.1151 8.15385 75.3372 8.24554 75.5009 8.40875C75.6647 8.57195 75.7567 8.79331 75.7567 9.02413V105.13C75.7567 105.361 75.6647 105.582 75.5009 105.745C75.3372 105.908 75.1151 106 74.8835 106ZM1.74647 104.259H74.0102V9.8944H1.74647V104.259Z" fill="white"/>
<path d="M66.1511 54.8945H9.60566C9.37406 54.8945 9.15195 54.8028 8.98819 54.6396C8.82442 54.4764 8.73242 54.2551 8.73242 54.0242V47.5976C8.73589 47.3678 8.829 47.1485 8.99202 46.986C9.15504 46.8235 9.37514 46.7308 9.60566 46.7273H66.1511C66.3817 46.7308 66.6018 46.8235 66.7648 46.986C66.9278 47.1485 67.0209 47.3678 67.0244 47.5976V53.9573C67.0317 54.0767 67.0146 54.1962 66.9741 54.3088C66.9337 54.4214 66.8707 54.5246 66.7891 54.6122C66.7075 54.6999 66.6088 54.7701 66.4992 54.8186C66.3895 54.8671 66.2711 54.8929 66.1511 54.8945ZM10.4789 53.087H65.2645V48.4812H10.4789V53.087Z" fill="white"/>
<path d="M66.1512 63.276H9.60566C9.37406 63.276 9.15195 63.1843 8.98819 63.0211C8.82442 62.8579 8.73242 62.6365 8.73242 62.4057C8.73242 62.1749 8.82442 61.9535 8.98819 61.7903C9.15195 61.6271 9.37406 61.5354 9.60566 61.5354H66.1512C66.3817 61.5389 66.6018 61.6317 66.7648 61.7942C66.9278 61.9566 67.0209 62.176 67.0244 62.4057C67.0209 62.6354 66.9278 62.8548 66.7648 63.0173C66.6018 63.1797 66.3817 63.2725 66.1512 63.276Z" fill="white"/>
<path d="M50.1239 68.8592H9.60566C9.37406 68.8592 9.15195 68.7675 8.98819 68.6043C8.82442 68.4411 8.73242 68.2197 8.73242 67.9889C8.73242 67.7581 8.82442 67.5367 8.98819 67.3735C9.15195 67.2103 9.37406 67.1186 9.60566 67.1186H50.1239C50.3555 67.1186 50.5776 67.2103 50.7414 67.3735C50.9051 67.5367 50.9971 67.7581 50.9971 67.9889C50.9971 68.2197 50.9051 68.4411 50.7414 68.6043C50.5776 68.7675 50.3555 68.8592 50.1239 68.8592Z" fill="white"/>
<path d="M66.1512 74.4423H9.60566C9.37406 74.4423 9.15195 74.3507 8.98819 74.1874C8.82442 74.0242 8.73242 73.8029 8.73242 73.5721C8.73242 73.3413 8.82442 73.1199 8.98819 72.9567C9.15195 72.7935 9.37406 72.7018 9.60566 72.7018H66.1512C66.3828 72.7018 66.6049 72.7935 66.7686 72.9567C66.9324 73.1199 67.0244 73.3413 67.0244 73.5721C67.0244 73.8029 66.9324 74.0242 66.7686 74.1874C66.6049 74.3507 66.3828 74.4423 66.1512 74.4423Z" fill="white"/>
<path d="M66.1512 80.0255H9.60566C9.37406 80.0255 9.15195 79.9338 8.98819 79.7706C8.82442 79.6074 8.73242 79.386 8.73242 79.1552C8.73242 78.9244 8.82442 78.7031 8.98819 78.5399C9.15195 78.3766 9.37406 78.285 9.60566 78.285H66.1512C66.3828 78.285 66.6049 78.3766 66.7686 78.5399C66.9324 78.7031 67.0244 78.9244 67.0244 79.1552C67.0244 79.386 66.9324 79.6074 66.7686 79.7706C66.6049 79.9338 66.3828 80.0255 66.1512 80.0255Z" fill="white"/>
<path d="M55.5917 85.689H9.60566C9.37406 85.689 9.15195 85.5973 8.98819 85.4341C8.82442 85.2709 8.73242 85.0496 8.73242 84.8187C8.73242 84.5879 8.82442 84.3666 8.98819 84.2034C9.15195 84.0402 9.37406 83.9485 9.60566 83.9485H55.5917C55.8233 83.9485 56.0454 84.0402 56.2092 84.2034C56.3729 84.3666 56.4649 84.5879 56.4649 84.8187C56.4649 85.0496 56.3729 85.2709 56.2092 85.4341C56.0454 85.5973 55.8233 85.689 55.5917 85.689Z" fill="white"/>
<path d="M66.1512 91.1919H9.60566C9.37406 91.1919 9.15195 91.1002 8.98819 90.937C8.82442 90.7738 8.73242 90.5524 8.73242 90.3216C8.73242 90.0908 8.82442 89.8694 8.98819 89.7062C9.15195 89.543 9.37406 89.4513 9.60566 89.4513H66.1512C66.3828 89.4513 66.6049 89.543 66.7686 89.7062C66.9324 89.8694 67.0244 90.0908 67.0244 90.3216C67.0244 90.5524 66.9324 90.7738 66.7686 90.937C66.6049 91.1002 66.3828 91.1919 66.1512 91.1919Z" fill="white"/>
<path d="M29.408 40.555H9.60566C9.37406 40.555 9.15195 40.4633 8.98819 40.3001C8.82442 40.1369 8.73242 39.9155 8.73242 39.6847V19.9495C8.73242 19.8352 8.75501 19.722 8.79889 19.6164C8.84278 19.5109 8.9071 19.4149 8.98819 19.3341C9.06927 19.2533 9.16554 19.1892 9.27149 19.1454C9.37743 19.1017 9.49098 19.0792 9.60566 19.0792H29.408C29.5227 19.0792 29.6362 19.1017 29.7422 19.1454C29.8481 19.1892 29.9444 19.2533 30.0255 19.3341C30.1066 19.4149 30.1709 19.5109 30.2148 19.6164C30.2586 19.722 30.2812 19.8352 30.2812 19.9495V39.6847C30.2812 39.9155 30.1892 40.1369 30.0255 40.3001C29.8617 40.4633 29.6396 40.555 29.408 40.555ZM10.4789 38.8278H28.5348V20.8198H10.4789V38.8278Z" fill="white"/>
<path d="M63.2888 13.6835C63.0572 13.6835 62.8351 13.5918 62.6713 13.4286C62.5075 13.2654 62.4155 13.044 62.4155 12.8132C62.4155 12.5824 62.5075 12.361 62.6713 12.1978C62.8351 12.0346 63.0572 11.9429 63.2888 11.9429C63.885 11.9394 64.4557 11.7008 64.876 11.2794C65.2964 10.8579 65.5323 10.2878 65.5323 9.69357V4.01667C65.5563 3.7076 65.5159 3.39692 65.4137 3.10413C65.3115 2.81135 65.1497 2.54278 64.9384 2.31528C64.7271 2.08779 64.4709 1.90627 64.1858 1.78214C63.9008 1.658 63.5931 1.59393 63.2821 1.59393C62.971 1.59393 62.6633 1.658 62.3783 1.78214C62.0933 1.90627 61.8371 2.08779 61.6258 2.31528C61.4145 2.54278 61.2526 2.81135 61.1504 3.10413C61.0482 3.39692 61.0078 3.7076 61.0318 4.01667C61.0318 4.24749 60.9398 4.46885 60.776 4.63205C60.6123 4.79526 60.3902 4.88695 60.1586 4.88695C59.927 4.88695 59.7048 4.79526 59.5411 4.63205C59.3773 4.46885 59.2853 4.24749 59.2853 4.01667C59.2115 3.45026 59.2597 2.87466 59.4268 2.3283C59.5939 1.78193 59.8759 1.27736 60.2542 0.848247C60.6324 0.419138 61.0982 0.0753602 61.6203 -0.160145C62.1424 -0.395651 62.7089 -0.517467 63.2821 -0.517467C63.8552 -0.517467 64.4217 -0.395651 64.9438 -0.160145C65.466 0.0753602 65.9317 0.419138 66.3099 0.848247C66.6882 1.27736 66.9703 1.78193 67.1373 2.3283C67.3044 2.87466 67.3526 3.45026 67.2788 4.01667V9.69357C67.2718 10.7473 66.8496 11.7561 66.1032 12.5024C65.3568 13.2488 64.3461 13.673 63.2888 13.6835ZM53.1189 13.6835C52.8873 13.6835 52.6652 13.5918 52.5014 13.4286C52.3377 13.2654 52.2457 13.044 52.2457 12.8132C52.2457 12.5824 52.3377 12.361 52.5014 12.1978C52.6652 12.0346 52.8873 11.9429 53.1189 11.9429C53.7175 11.9429 54.2916 11.7059 54.7148 11.2841C55.1381 10.8623 55.3759 10.2901 55.3759 9.69357V4.01667C55.3759 3.42011 55.1381 2.84799 54.7148 2.42615C54.2916 2.00432 53.7175 1.76734 53.1189 1.76734C52.5203 1.76734 51.9463 2.00432 51.523 2.42615C51.0997 2.84799 50.8619 3.42011 50.8619 4.01667C50.8619 4.13096 50.8393 4.24413 50.7955 4.34972C50.7516 4.4553 50.6873 4.55124 50.6062 4.63205C50.5251 4.71287 50.4288 4.77697 50.3229 4.82071C50.2169 4.86444 50.1034 4.88695 49.9887 4.88695C49.874 4.88695 49.7605 4.86444 49.6545 4.82071C49.5486 4.77697 49.4523 4.71287 49.3712 4.63205C49.2901 4.55124 49.2258 4.4553 49.1819 4.34972C49.138 4.24413 49.1155 4.13096 49.1155 4.01667C49.1155 2.95139 49.5401 1.92973 50.2959 1.17646C51.0517 0.423185 52.0769 1.3113e-06 53.1458 1.3113e-06C54.2147 1.3113e-06 55.2398 0.423185 55.9957 1.17646C56.7515 1.92973 57.1761 2.95139 57.1761 4.01667V9.69357C57.1726 10.2211 57.0649 10.7427 56.8591 11.2287C56.6533 11.7146 56.3534 12.1555 55.9767 12.526C55.5999 12.8965 55.1537 13.1894 54.6633 13.388C54.173 13.5866 53.6482 13.687 53.1189 13.6835ZM42.9625 13.6835C42.7309 13.6835 42.5088 13.5918 42.345 13.4286C42.1813 13.2654 42.0893 13.044 42.0893 12.8132C42.0893 12.5824 42.1813 12.361 42.345 12.1978C42.5088 12.0346 42.7309 11.9429 42.9625 11.9429C43.5588 11.9394 44.1294 11.7008 44.5497 11.2794C44.9701 10.8579 45.2061 10.2878 45.206 9.69357V4.01667C45.23 3.7076 45.1896 3.39692 45.0874 3.10413C44.9852 2.81135 44.8234 2.54278 44.6121 2.31528C44.4008 2.08779 44.1446 1.90627 43.8596 1.78214C43.5745 1.658 43.2668 1.59393 42.9558 1.59393C42.6447 1.59393 42.337 1.658 42.052 1.78214C41.767 1.90627 41.5108 2.08779 41.2995 2.31528C41.0882 2.54278 40.9263 2.81135 40.8241 3.10413C40.7219 3.39692 40.6815 3.7076 40.7055 4.01667C40.7055 4.24749 40.6135 4.46885 40.4497 4.63205C40.286 4.79526 40.0639 4.88695 39.8323 4.88695C39.6007 4.88695 39.3786 4.79526 39.2148 4.63205C39.051 4.46885 38.959 4.24749 38.959 4.01667C38.959 2.95139 39.3837 1.92973 40.1395 1.17646C40.8953 0.423185 41.9205 1.3113e-06 42.9894 1.3113e-06C44.0583 1.3113e-06 45.0834 0.423185 45.8392 1.17646C46.5951 1.92973 47.0197 2.95139 47.0197 4.01667V9.69357C47.0126 10.7542 46.5848 11.769 45.8298 12.5165C45.0747 13.264 44.0536 13.6835 42.9894 13.6835H42.9625ZM32.7926 13.6835C32.561 13.6835 32.3389 13.5918 32.1752 13.4286C32.0114 13.2654 31.9194 13.044 31.9194 12.8132C31.9194 12.5824 32.0114 12.361 32.1752 12.1978C32.3389 12.0346 32.561 11.9429 32.7926 11.9429C33.3912 11.9429 33.9653 11.7059 34.3886 11.2841C34.8118 10.8623 35.0496 10.2901 35.0496 9.69357V4.01667C35.0496 3.42011 34.8118 2.84799 34.3886 2.42615C33.9653 2.00432 33.3912 1.76734 32.7926 1.76734C32.194 1.76734 31.62 2.00432 31.1967 2.42615C30.7734 2.84799 30.5357 3.42011 30.5357 4.01667C30.5357 4.24749 30.4436 4.46885 30.2799 4.63205C30.1161 4.79526 29.894 4.88695 29.6624 4.88695C29.4308 4.88695 29.2087 4.79526 29.0449 4.63205C28.8812 4.46885 28.7892 4.24749 28.7892 4.01667C28.7892 2.95139 29.2138 1.92973 29.9696 1.17646C30.7255 0.423185 31.7506 1.3113e-06 32.8195 1.3113e-06C33.8884 1.3113e-06 34.9135 0.423185 35.6694 1.17646C36.4252 1.92973 36.8498 2.95139 36.8498 4.01667V9.69357C36.8463 10.2211 36.7386 10.7427 36.5328 11.2287C36.327 11.7146 36.0271 12.1555 35.6504 12.526C35.2737 12.8965 34.8274 13.1894 34.337 13.388C33.8467 13.5866 33.3219 13.687 32.7926 13.6835ZM22.6362 13.6835C22.4046 13.6835 22.1825 13.5918 22.0187 13.4286C21.855 13.2654 21.763 13.044 21.763 12.8132C21.763 12.5824 21.855 12.361 22.0187 12.1978C22.1825 12.0346 22.4046 11.9429 22.6362 11.9429C23.2348 11.9429 23.8089 11.7059 24.2321 11.2841C24.6554 10.8623 24.8932 10.2901 24.8932 9.69357V4.01667C24.8932 3.42011 24.6554 2.84799 24.2321 2.42615C23.8089 2.00432 23.2348 1.76734 22.6362 1.76734C22.0376 1.76734 21.4635 2.00432 21.0403 2.42615C20.617 2.84799 20.3792 3.42011 20.3792 4.01667C20.3792 4.24749 20.2872 4.46885 20.1235 4.63205C19.9597 4.79526 19.7376 4.88695 19.506 4.88695C19.2744 4.88695 19.0523 4.79526 18.8885 4.63205C18.7248 4.46885 18.6327 4.24749 18.6327 4.01667C18.6327 2.95139 19.0574 1.92973 19.8132 1.17646C20.569 0.423185 21.5942 1.3113e-06 22.6631 1.3113e-06C23.732 1.3113e-06 24.7571 0.423185 25.5129 1.17646C26.2688 1.92973 26.6934 2.95139 26.6934 4.01667V9.69357C26.6899 10.2211 26.5822 10.7427 26.3764 11.2287C26.1706 11.7146 25.8707 12.1555 25.494 12.526C25.1172 12.8965 24.6709 13.1894 24.1806 13.388C23.6903 13.5866 23.1655 13.687 22.6362 13.6835ZM12.4663 13.6835C12.2348 13.6835 12.0126 13.5918 11.8489 13.4286C11.6851 13.2654 11.5931 13.044 11.5931 12.8132C11.5931 12.5824 11.6851 12.361 11.8489 12.1978C12.0126 12.0346 12.2348 11.9429 12.4663 11.9429C12.7672 11.9501 13.0665 11.8971 13.3466 11.7873C13.6266 11.6775 13.8818 11.5129 14.0971 11.3033C14.3124 11.0937 14.4835 10.8434 14.6003 10.5669C14.717 10.2905 14.7772 9.99352 14.7771 9.69357V4.01667C14.7771 3.41479 14.5372 2.83755 14.1101 2.41195C13.6831 1.98635 13.1039 1.74725 12.4999 1.74725C11.896 1.74725 11.3168 1.98635 10.8898 2.41195C10.4627 2.83755 10.2228 3.41479 10.2228 4.01667C10.1962 4.2306 10.0921 4.42747 9.93004 4.57023C9.76797 4.71298 9.55914 4.79178 9.34285 4.79178C9.12655 4.79178 8.91772 4.71298 8.75565 4.57023C8.59358 4.42747 8.48946 4.2306 8.46289 4.01667C8.46289 2.95139 8.88751 1.92973 9.64335 1.17646C10.3992 0.423185 11.4243 1.3113e-06 12.4932 1.3113e-06C13.5621 1.3113e-06 14.5873 0.423185 15.3431 1.17646C16.0989 1.92973 16.5235 2.95139 16.5235 4.01667V9.69357C16.52 10.2211 16.4123 10.7427 16.2065 11.2287C16.0007 11.7146 15.7009 12.1555 15.3241 12.526C14.9474 12.8965 14.5011 13.1894 14.0107 13.388C13.5204 13.5866 12.9956 13.687 12.4663 13.6835Z" fill="white"/>
<path d="M91.1259 102.452C90.9636 102.453 90.8043 102.408 90.6665 102.323C90.5286 102.238 90.4177 102.115 90.3467 101.97L81.5472 83.9217C81.4893 83.8049 81.4572 83.677 81.4531 83.5468V21.2348C81.4531 21.004 81.5451 20.7826 81.7089 20.6194C81.8727 20.4562 82.0948 20.3645 82.3264 20.3645H99.9255C100.157 20.3645 100.379 20.4562 100.543 20.6194C100.707 20.7826 100.799 21.004 100.799 21.2348V83.5468C100.799 83.6761 100.772 83.804 100.718 83.9217L91.9185 101.97C91.844 102.115 91.7305 102.238 91.5906 102.323C91.4507 102.408 91.2898 102.452 91.1259 102.452ZM83.1996 83.346L91.1259 99.5867L99.0522 83.346V22.1051H83.1996V83.346Z" fill="white"/>
<path d="M91.1256 102.452C90.9633 102.453 90.804 102.408 90.6661 102.323C90.5282 102.238 90.4174 102.115 90.3464 101.97L87.8341 96.8286C87.7812 96.7083 87.7539 96.5784 87.7539 96.447C87.7539 96.3157 87.7812 96.1857 87.8341 96.0654C87.8933 95.9473 87.9784 95.8438 88.083 95.7627C88.1876 95.6816 88.3092 95.6249 88.4387 95.5968C90.2087 95.2084 92.0424 95.2084 93.8124 95.5968C93.9435 95.621 94.0668 95.6762 94.172 95.7578C94.2772 95.8393 94.3612 95.9448 94.417 96.0654C94.4762 96.184 94.507 96.3146 94.507 96.447C94.507 96.5794 94.4762 96.71 94.417 96.8286L91.9182 101.97C91.8437 102.115 91.7302 102.238 91.5902 102.323C91.4503 102.408 91.2895 102.452 91.1256 102.452ZM89.9165 97.0964L91.1256 99.5733L92.3347 97.0964C91.5308 97.0071 90.7193 97.0116 89.9165 97.1098V97.0964Z" fill="white"/>
<path d="M100.127 84.4439C99.9689 84.4468 99.8137 84.4 99.6838 84.31L96.7282 82.6096L94.9011 84.2028C94.7465 84.3256 94.5547 84.3924 94.357 84.3924C94.1594 84.3924 93.9675 84.3256 93.8129 84.2028L90.9111 82.1276L88.9094 84.1225C88.8286 84.2039 88.7323 84.2683 88.6262 84.312C88.5201 84.3557 88.4062 84.3778 88.2914 84.3769C88.0605 84.373 87.8397 84.2821 87.6734 84.1225L85.6851 82.1276L82.7833 84.2028C82.6918 84.2704 82.5878 84.3191 82.4773 84.3462C82.3667 84.3734 82.2519 84.3784 82.1394 84.3609C82.0269 84.3435 81.9191 84.304 81.822 84.2447C81.725 84.1853 81.6408 84.1074 81.5742 84.0154C81.5061 83.9232 81.4569 83.8184 81.4295 83.7072C81.4021 83.596 81.397 83.4805 81.4145 83.3673C81.4319 83.2541 81.4716 83.1455 81.5313 83.0476C81.591 82.9498 81.6695 82.8646 81.7623 82.797L85.3089 80.3335C85.4786 80.2093 85.6877 80.1503 85.8975 80.1676C86.1073 80.1848 86.3038 80.277 86.4509 80.4272L88.3451 82.3284L90.2663 80.4272C90.4087 80.2883 90.595 80.2031 90.7935 80.186C90.992 80.1689 91.1902 80.221 91.3544 80.3335L94.2831 82.4489L96.0834 80.8958C96.2207 80.7778 96.3916 80.7054 96.5721 80.6886C96.7527 80.6718 96.934 80.7115 97.0909 80.8021L100.53 82.8372C100.73 82.9544 100.874 83.1457 100.932 83.3692C100.99 83.5927 100.957 83.8299 100.839 84.0288C100.763 84.1503 100.659 84.2516 100.535 84.3239C100.41 84.3962 100.271 84.4373 100.127 84.4439Z" fill="white"/>
<path d="M85.8596 82.1544C85.628 82.1544 85.4059 82.0627 85.2421 81.8995C85.0783 81.7362 84.9863 81.5149 84.9863 81.2841V21.2348C84.9863 21.004 85.0783 20.7826 85.2421 20.6194C85.4059 20.4562 85.628 20.3645 85.8596 20.3645C86.0912 20.3645 86.3133 20.4562 86.477 20.6194C86.6408 20.7826 86.7328 21.004 86.7328 21.2348V81.2841C86.7328 81.5149 86.6408 81.7362 86.477 81.8995C86.3133 82.0627 86.0912 82.1544 85.8596 82.1544Z" fill="white"/>
<path d="M90.804 82.4623C90.5735 82.4588 90.3534 82.366 90.1904 82.2036C90.0274 82.0411 89.9343 81.8218 89.9308 81.592L89.6621 21.2348C89.6621 21.1205 89.6847 21.0074 89.7286 20.9018C89.7725 20.7962 89.8368 20.7002 89.9179 20.6194C89.999 20.5386 90.0952 20.4745 90.2012 20.4308C90.3071 20.387 90.4207 20.3645 90.5353 20.3645C90.65 20.3645 90.7636 20.387 90.8695 20.4308C90.9755 20.4745 91.0717 20.5386 91.1528 20.6194C91.2339 20.7002 91.2982 20.7962 91.3421 20.9018C91.386 21.0074 91.4086 21.1205 91.4086 21.2348L91.6773 81.5786C91.6774 81.8084 91.5877 82.0292 91.4272 82.1942C91.2666 82.3592 91.0479 82.4553 90.8175 82.4623H90.804Z" fill="white"/>
<path d="M96.3244 83.1585C96.0928 83.1585 95.8707 83.0668 95.7069 82.9036C95.5432 82.7404 95.4512 82.5191 95.4512 82.2882V21.2348C95.4512 21.004 95.5432 20.7826 95.7069 20.6194C95.8707 20.4562 96.0928 20.3645 96.3244 20.3645C96.556 20.3645 96.7781 20.4562 96.9419 20.6194C97.1056 20.7826 97.1976 21.004 97.1976 21.2348V82.2882C97.1976 82.5191 97.1056 82.7404 96.9419 82.9036C96.7781 83.0668 96.556 83.1585 96.3244 83.1585Z" fill="white"/>
<path d="M99.9255 22.1051H82.3264C82.0948 22.1051 81.8727 22.0134 81.7089 21.8502C81.5451 21.687 81.4531 21.4656 81.4531 21.2348V16.6826C81.4567 15.2455 82.031 13.8683 83.0507 12.8522C84.0703 11.836 85.4521 11.2636 86.8941 11.2601H95.3846C96.8149 11.2811 98.1796 11.8613 99.1847 12.8756C100.19 13.8898 100.755 15.257 100.758 16.6826V21.2348C100.759 21.4588 100.672 21.6743 100.517 21.8364C100.362 21.9985 100.15 22.0948 99.9255 22.1051ZM83.1996 20.3645H99.0522V16.6826C99.0522 15.7107 98.6667 14.7782 97.9796 14.0885C97.2926 13.3987 96.3598 13.0077 95.3846 13.0006H86.9209C85.9411 13.0006 85.0014 13.3886 84.3085 14.0791C83.6157 14.7696 83.2265 15.7061 83.2265 16.6826L83.1996 20.3645Z" fill="white"/>
</g>
<defs>
<clipPath id="clip0_28_566">
<rect width="101" height="106" fill="white"/>
</clipPath>
</defs>
</svg>
