<svg width="20" height="20" viewBox="0 0 20 20" fill="none" xmlns="http://www.w3.org/2000/svg">
<g clip-path="url(#clip0_152_33)">
<path d="M14.6786 12.9301C15.889 11.2785 16.4311 9.23074 16.1965 7.19656C15.9619 5.16239 14.9679 3.2918 13.4133 1.95904C11.8588 0.626277 9.85831 -0.0703699 7.81217 0.00847151C5.76603 0.087313 3.8251 0.935828 2.37771 2.38426C0.930312 3.83269 0.0831854 5.77422 0.00580817 7.82042C-0.0715691 9.86661 0.626509 11.8666 1.96038 13.4202C3.29425 14.9738 5.16555 15.9665 7.1999 16.1996C9.23424 16.4328 11.2816 15.8892 12.9324 14.6776H12.9311C12.9686 14.7276 13.0086 14.7751 13.0536 14.8214L17.8661 19.6339C18.1005 19.8684 18.4185 20.0003 18.7501 20.0004C19.0816 20.0005 19.3997 19.8689 19.6342 19.6345C19.8688 19.4001 20.0006 19.0822 20.0007 18.7506C20.0009 18.419 19.8693 18.1009 19.6349 17.8664L14.8224 13.0539C14.7777 13.0086 14.7296 12.9669 14.6786 12.9289V12.9301ZM15.0011 8.12513C15.0011 9.02796 14.8233 9.92196 14.4778 10.7561C14.1323 11.5902 13.6259 12.3481 12.9875 12.9865C12.3491 13.6249 11.5912 14.1313 10.7571 14.4768C9.92296 14.8223 9.02896 15.0001 8.12612 15.0001C7.22328 15.0001 6.32929 14.8223 5.49517 14.4768C4.66106 14.1313 3.90317 13.6249 3.26476 12.9865C2.62636 12.3481 2.11995 11.5902 1.77445 10.7561C1.42895 9.92196 1.25112 9.02796 1.25112 8.12513C1.25112 6.30176 1.97545 4.55308 3.26476 3.26377C4.55408 1.97445 6.30276 1.25013 8.12612 1.25013C9.94948 1.25013 11.6982 1.97445 12.9875 3.26377C14.2768 4.55308 15.0011 6.30176 15.0011 8.12513Z" fill="#999999"/>
</g>
<defs>
<clipPath id="clip0_152_33">
<rect width="20" height="20" fill="white"/>
</clipPath>
</defs>
</svg>
