<svg width="24" height="24" viewBox="0 0 24 24" fill="none" xmlns="http://www.w3.org/2000/svg">
<path d="M23.8533 22.4395L16.8816 15.4688C18.2528 13.7823 19.0009 11.6747 18.9998 9.50109C18.9998 4.26188 14.7384 0 9.50016 0C4.26188 0 0 4.26188 0 9.50016C0 14.7384 4.26188 18.9998 9.50016 18.9998C11.6741 19.0011 13.782 18.253 15.4688 16.8816L22.4395 23.8533C22.4859 23.8998 22.541 23.9367 22.6016 23.9618C22.6623 23.987 22.7273 23.9999 22.793 23.9999C22.8586 23.9999 22.9236 23.987 22.9843 23.9618C23.0449 23.9367 23.1 23.8998 23.1464 23.8533L23.8538 23.1464C23.9002 23.1 23.9369 23.0448 23.962 22.9842C23.9871 22.9235 24 22.8585 24 22.7929C23.9999 22.7272 23.987 22.6622 23.9618 22.6016C23.9366 22.541 23.8997 22.4859 23.8533 22.4395ZM9.50016 17.002C5.36437 17.002 2.00016 13.6378 2.00016 9.50203C2.00016 5.36625 5.36437 2.00203 9.50016 2.00203C13.6359 2.00203 17.0002 5.36625 17.0002 9.50203C17.0002 13.6378 13.6359 17.0002 9.50016 17.0002V17.002Z" fill="#22496C"/>
</svg>
