<svg width="24" height="24" viewBox="0 0 24 24" fill="none" xmlns="http://www.w3.org/2000/svg">
<g clip-path="url(#clip0_152_60)">
<path d="M12.0018 7.13086C11.3624 7.13086 10.7293 7.2568 10.1385 7.50149C9.54779 7.74618 9.01104 8.10483 8.55891 8.55696C8.10678 9.00908 7.74813 9.54584 7.50344 10.1366C7.25875 10.7273 7.13281 11.3605 7.13281 11.9999C7.13281 12.6393 7.25875 13.2724 7.50344 13.8631C7.74813 14.4539 8.10678 14.9906 8.55891 15.4428C9.01104 15.8949 9.54779 16.2535 10.1385 16.4982C10.7293 16.7429 11.3624 16.8689 12.0018 16.8689C13.2932 16.8689 14.5316 16.3559 15.4447 15.4428C16.3578 14.5296 16.8708 13.2912 16.8708 11.9999C16.8708 10.7085 16.3578 9.47007 15.4447 8.55696C14.5316 7.64384 13.2932 7.13086 12.0018 7.13086ZM8.63281 11.9999C8.63281 11.1063 8.98776 10.2494 9.61957 9.61762C10.2514 8.98581 11.1083 8.63086 12.0018 8.63086C12.8953 8.63086 13.7522 8.98581 14.3841 9.61762C15.0159 10.2494 15.3708 11.1063 15.3708 11.9999C15.3708 12.8934 15.0159 13.7503 14.3841 14.3821C13.7522 15.0139 12.8953 15.3689 12.0018 15.3689C11.1083 15.3689 10.2514 15.0139 9.61957 14.3821C8.98776 13.7503 8.63281 12.8934 8.63281 11.9999Z" fill="white"/>
<path d="M14.6932 2.01473C13.9028 -0.670273 10.0957 -0.670273 9.30525 2.01473L9.16425 2.49323C9.10904 2.68065 9.0126 2.85335 8.88198 2.99866C8.75135 3.14397 8.58987 3.25821 8.40936 3.333C8.22885 3.4078 8.0339 3.44125 7.83878 3.4309C7.64367 3.42056 7.45334 3.36668 7.28175 3.27323L6.84375 3.03323C4.38375 1.69523 1.69425 4.38623 3.03375 6.84473L3.27225 7.28273C3.36571 7.45431 3.41958 7.64464 3.42993 7.83976C3.44027 8.03487 3.40682 8.22983 3.33203 8.41034C3.25724 8.59085 3.143 8.75233 2.99769 8.88295C2.85238 9.01357 2.67968 9.11002 2.49225 9.16523L2.01375 9.30623C-0.67125 10.0967 -0.67125 13.9037 2.01375 14.6942L2.49225 14.8352C2.67968 14.8904 2.85238 14.9869 2.99769 15.1175C3.143 15.2481 3.25724 15.4096 3.33203 15.5901C3.40682 15.7706 3.44027 15.9656 3.42993 16.1607C3.41958 16.3558 3.36571 16.5461 3.27225 16.7177L3.03225 17.1557C1.69425 19.6157 4.38375 22.3067 6.84375 20.9657L7.28175 20.7272C7.45334 20.6338 7.64367 20.5799 7.83878 20.5695C8.0339 20.5592 8.22885 20.5927 8.40936 20.6674C8.58987 20.7422 8.75135 20.8565 8.88198 21.0018C9.0126 21.1471 9.10904 21.3198 9.16425 21.5072L9.30525 21.9857C10.0957 24.6707 13.9028 24.6707 14.6932 21.9857L14.8343 21.5072C14.8895 21.3198 14.9859 21.1471 15.1165 21.0018C15.2471 20.8565 15.4086 20.7422 15.5891 20.6674C15.7696 20.5927 15.9646 20.5592 16.1597 20.5695C16.3548 20.5799 16.5452 20.6338 16.7168 20.7272L17.1548 20.9672C19.6147 22.3067 22.3057 19.6142 20.9648 17.1557L20.7262 16.7177C20.6328 16.5461 20.5789 16.3558 20.5686 16.1607C20.5582 15.9656 20.5917 15.7706 20.6665 15.5901C20.7413 15.4096 20.8555 15.2481 21.0008 15.1175C21.1461 14.9869 21.3188 14.8904 21.5063 14.8352L21.9847 14.6942C24.6698 13.9037 24.6698 10.0967 21.9847 9.30623L21.5063 9.16523C21.3188 9.11002 21.1461 9.01357 21.0008 8.88295C20.8555 8.75233 20.7413 8.59085 20.6665 8.41034C20.5917 8.22983 20.5582 8.03487 20.5686 7.83976C20.5789 7.64464 20.6328 7.45431 20.7262 7.28273L20.9662 6.84473C22.3057 4.38473 19.6133 1.69523 17.1548 3.03473L16.7168 3.27323C16.5452 3.36668 16.3548 3.42056 16.1597 3.4309C15.9646 3.44125 15.7696 3.4078 15.5891 3.333C15.4086 3.25821 15.2471 3.14397 15.1165 2.99866C14.9859 2.85335 14.8895 2.68065 14.8343 2.49323L14.6932 2.01473ZM10.7437 2.43923C11.1128 1.18673 12.8857 1.18673 13.2548 2.43923L13.3958 2.91773C13.5143 3.31985 13.7213 3.69036 14.0016 4.00208C14.282 4.31379 14.6285 4.55882 15.0159 4.7192C15.4032 4.87957 15.8215 4.95123 16.2402 4.92891C16.6588 4.90659 17.0672 4.79087 17.4352 4.59023L17.8717 4.35023C19.0177 3.72773 20.2717 4.98023 19.6478 6.12773L19.4093 6.56573C19.2089 6.93387 19.0935 7.34217 19.0714 7.76071C19.0493 8.17925 19.1212 8.59743 19.2817 8.9846C19.4422 9.37178 19.6873 9.71813 19.999 9.99829C20.3107 10.2785 20.6812 10.4853 21.0833 10.6037L21.5602 10.7447C22.8127 11.1137 22.8127 12.8867 21.5602 13.2557L21.0818 13.3967C20.6796 13.5153 20.3091 13.7223 19.9974 14.0026C19.6857 14.283 19.4407 14.6295 19.2803 15.0168C19.1199 15.4042 19.0483 15.8225 19.0706 16.2411C19.0929 16.6598 19.2086 17.0681 19.4093 17.4362L19.6493 17.8727C20.2718 19.0187 19.0193 20.2727 17.8717 19.6487L17.4352 19.4102C17.0671 19.2096 16.6586 19.0939 16.2399 19.0717C15.8212 19.0495 15.4028 19.1213 15.0154 19.2818C14.6281 19.4423 14.2815 19.6875 14.0013 19.9994C13.721 20.3113 13.5141 20.682 13.3958 21.0842L13.2548 21.5612C12.8857 22.8137 11.1128 22.8137 10.7437 21.5612L10.6027 21.0827C10.4842 20.6808 10.2772 20.3105 9.99695 19.9989C9.71671 19.6874 9.37034 19.4425 8.98318 19.2821C8.59603 19.1217 8.17791 19.05 7.75945 19.0722C7.34099 19.0944 6.93279 19.2099 6.56475 19.4102L6.12675 19.6502C4.98075 20.2727 3.72675 19.0202 4.35075 17.8727L4.58925 17.4362C4.79018 17.0681 4.90613 16.6596 4.92859 16.2408C4.95105 15.822 4.87946 15.4034 4.71907 15.0159C4.55867 14.6284 4.31354 14.2816 4.00167 14.0012C3.68979 13.7208 3.31909 13.5137 2.91675 13.3952L2.43825 13.2542C1.18575 12.8852 1.18575 11.1122 2.43825 10.7432L2.91675 10.6022C3.31846 10.4836 3.68856 10.2766 3.99996 9.99651C4.31137 9.71638 4.5562 9.37017 4.71653 8.98321C4.87686 8.59625 4.94865 8.17834 4.92662 7.76006C4.9046 7.34177 4.78933 6.93371 4.58925 6.56573L4.34925 6.12773C3.72675 4.98173 4.97925 3.72773 6.12675 4.35173L6.56475 4.59023C6.93279 4.79059 7.34099 4.90609 7.75945 4.92826C8.17791 4.95043 8.59603 4.87871 8.98318 4.71835C9.37034 4.558 9.71671 4.31307 9.99695 4.00151C10.2772 3.68995 10.4842 3.31964 10.6027 2.91773L10.7437 2.43923Z" fill="white"/>
</g>
<defs>
<clipPath id="clip0_152_60">
<rect width="24" height="24" fill="white"/>
</clipPath>
</defs>
</svg>
