<svg width="24" height="24" viewBox="0 0 24 24" fill="none" xmlns="http://www.w3.org/2000/svg">
<g clip-path="url(#clip0_78_1171)">
<path fill-rule="evenodd" clip-rule="evenodd" d="M0 15.75C0 15.9489 0.0790176 16.1397 0.21967 16.2803C0.360322 16.421 0.551088 16.5 0.75 16.5H6.75C6.94891 16.5 7.13968 16.421 7.28033 16.2803C7.42098 16.1397 7.5 15.9489 7.5 15.75C7.5 15.5511 7.42098 15.3603 7.28033 15.2197C7.13968 15.079 6.94891 15 6.75 15H4.5V2.25C4.5 2.05109 4.42098 1.86032 4.28033 1.71967C4.13968 1.57902 3.94891 1.5 3.75 1.5C3.55109 1.5 3.36032 1.57902 3.21967 1.71967C3.07902 1.86032 3 2.05109 3 2.25V15H0.75C0.551088 15 0.360322 15.079 0.21967 15.2197C0.0790176 15.3603 0 15.5511 0 15.75H0ZM3.75 18C3.55109 18 3.36032 18.079 3.21967 18.2197C3.07902 18.3603 3 18.5511 3 18.75V21.75C3 21.9489 3.07902 22.1397 3.21967 22.2803C3.36032 22.421 3.55109 22.5 3.75 22.5C3.94891 22.5 4.13968 22.421 4.28033 22.2803C4.42098 22.1397 4.5 21.9489 4.5 21.75V18.75C4.5 18.5511 4.42098 18.3603 4.28033 18.2197C4.13968 18.079 3.94891 18 3.75 18ZM8.25 8.25C8.25 8.44891 8.32902 8.63968 8.46967 8.78033C8.61032 8.92098 8.80109 9 9 9H11.25V21.75C11.25 21.9489 11.329 22.1397 11.4697 22.2803C11.6103 22.421 11.8011 22.5 12 22.5C12.1989 22.5 12.3897 22.421 12.5303 22.2803C12.671 22.1397 12.75 21.9489 12.75 21.75V9H15C15.1989 9 15.3897 8.92098 15.5303 8.78033C15.671 8.63968 15.75 8.44891 15.75 8.25C15.75 8.05109 15.671 7.86032 15.5303 7.71967C15.3897 7.57902 15.1989 7.5 15 7.5H9C8.80109 7.5 8.61032 7.57902 8.46967 7.71967C8.32902 7.86032 8.25 8.05109 8.25 8.25ZM12 1.5C11.8011 1.5 11.6103 1.57902 11.4697 1.71967C11.329 1.86032 11.25 2.05109 11.25 2.25V5.25C11.25 5.44891 11.329 5.63968 11.4697 5.78033C11.6103 5.92098 11.8011 6 12 6C12.1989 6 12.3897 5.92098 12.5303 5.78033C12.671 5.63968 12.75 5.44891 12.75 5.25V2.25C12.75 2.05109 12.671 1.86032 12.5303 1.71967C12.3897 1.57902 12.1989 1.5 12 1.5ZM16.5 15.75C16.5 15.9489 16.579 16.1397 16.7197 16.2803C16.8603 16.421 17.0511 16.5 17.25 16.5H23.25C23.4489 16.5 23.6397 16.421 23.7803 16.2803C23.921 16.1397 24 15.9489 24 15.75C24 15.5511 23.921 15.3603 23.7803 15.2197C23.6397 15.079 23.4489 15 23.25 15H21V2.25C21 2.05109 20.921 1.86032 20.7803 1.71967C20.6397 1.57902 20.4489 1.5 20.25 1.5C20.0511 1.5 19.8603 1.57902 19.7197 1.71967C19.579 1.86032 19.5 2.05109 19.5 2.25V15H17.25C17.0511 15 16.8603 15.079 16.7197 15.2197C16.579 15.3603 16.5 15.5511 16.5 15.75ZM20.25 18C20.0511 18 19.8603 18.079 19.7197 18.2197C19.579 18.3603 19.5 18.5511 19.5 18.75V21.75C19.5 21.9489 19.579 22.1397 19.7197 22.2803C19.8603 22.421 20.0511 22.5 20.25 22.5C20.4489 22.5 20.6397 22.421 20.7803 22.2803C20.921 22.1397 21 21.9489 21 21.75V18.75C21 18.5511 20.921 18.3603 20.7803 18.2197C20.6397 18.079 20.4489 18 20.25 18Z" fill="#00476E"/>
</g>
<defs>
<clipPath id="clip0_78_1171">
<rect width="24" height="24" fill="white"/>
</clipPath>
</defs>
</svg>
