<svg width="24" height="23" viewBox="0 0 24 23" fill="none" xmlns="http://www.w3.org/2000/svg">
<path d="M5.3716 22.9996C5.18006 22.9993 4.99105 22.9559 4.81857 22.8726C4.64609 22.7894 4.49455 22.6683 4.3752 22.5185C4.25585 22.3687 4.17173 22.194 4.12909 22.0073C4.08644 21.8205 4.08637 21.6266 4.12886 21.4398L5.67266 14.6386L0.436335 10.0462C0.248409 9.88175 0.112836 9.66581 0.0464026 9.4251C-0.0200312 9.18439 -0.0144086 8.92948 0.0625744 8.69193C0.139557 8.45439 0.28452 8.24463 0.479514 8.08864C0.674508 7.93266 0.91097 7.83728 1.15962 7.81433L8.08769 7.18591L10.8268 0.774956C10.9246 0.54449 11.0881 0.347916 11.2969 0.209732C11.5057 0.0715473 11.7506 -0.00213623 12.001 -0.00213623C12.2513 -0.00213623 12.4962 0.0715473 12.705 0.209732C12.9138 0.347916 13.0773 0.54449 13.1751 0.774956L15.9119 7.18591L22.839 7.8148C23.0878 7.83743 23.3245 7.93257 23.5198 8.08843C23.715 8.2443 23.8602 8.45403 23.9374 8.69164C24.0146 8.92924 24.0204 9.18428 23.9541 9.42514C23.8877 9.66601 23.7522 9.88211 23.5642 10.0467L18.3278 14.6377L19.8721 21.4384C19.9277 21.682 19.9105 21.9366 19.8227 22.1705C19.7349 22.4044 19.5803 22.6073 19.3781 22.7541C19.176 22.9009 18.9351 22.985 18.6855 22.9961C18.4359 23.0072 18.1886 22.9447 17.9742 22.8164L12 19.247L6.02585 22.8188C5.82801 22.9369 5.60198 22.9993 5.3716 22.9996ZM12 17.7088C12.2303 17.7089 12.4562 17.7714 12.6538 17.8896L18.2921 21.2618L16.8348 14.8415C16.7839 14.6171 16.7946 14.383 16.8657 14.1642C16.9369 13.9453 17.0659 13.7498 17.2392 13.5983L22.1833 9.26231L15.6399 8.66912C15.4097 8.64851 15.1895 8.56568 15.0028 8.42951C14.816 8.29333 14.6699 8.10893 14.5799 7.89605L11.9967 1.84721L9.41356 7.89699C9.32426 8.1088 9.17907 8.29236 8.99351 8.42803C8.80796 8.56371 8.58901 8.64639 8.36009 8.66725L1.81575 9.26138L6.75947 13.5973C6.93316 13.7487 7.06252 13.9444 7.13374 14.1635C7.20495 14.3826 7.21536 14.6169 7.16385 14.8415L5.70788 21.2604L11.3439 17.8896C11.5422 17.771 11.769 17.7085 12 17.7088ZM15.9631 7.30615V7.3085C15.9631 7.3085 15.964 7.30709 15.9631 7.30615Z" fill="#22496C"/>
</svg>
