<svg width="20" height="12" viewBox="0 0 20 12" fill="none" xmlns="http://www.w3.org/2000/svg">
<path d="M19.0679 10.6675C18.3192 9.32001 16.3904 7.70084 15.5942 6.99626C15.3763 6.80334 15.3529 6.46959 15.5513 6.25626C17.0708 4.62334 18.2863 2.74709 18.7046 1.61334C18.8892 1.11251 18.5071 0.58334 17.9688 0.58334H16.405C15.8896 0.58334 15.5879 0.76834 15.4442 1.06292C14.1813 3.65084 13.0979 4.77084 12.3396 5.42542C11.915 5.79209 11.2529 5.48834 11.2529 4.93042C11.2529 3.85542 11.2529 2.46584 11.2529 1.48042C11.2529 1.00251 10.8621 0.61584 10.38 0.61584L7.52335 0.58334C7.16376 0.58334 6.95835 0.990423 7.17418 1.27584L7.64585 1.95292C7.82335 2.18751 7.91918 2.47292 7.91918 2.76584L7.91668 5.81501C7.91668 6.34542 7.27376 6.60459 6.8921 6.23292C5.60085 4.97542 4.48043 2.40751 4.0771 1.17959C3.96043 0.824173 3.62751 0.584173 3.25001 0.58334L1.7096 0.57959C1.13168 0.57959 0.709181 1.12751 0.866264 1.67917C2.27376 6.61959 5.16168 11.3196 10.3083 11.8292C10.8154 11.8792 11.2529 11.4708 11.2529 10.9654V9.36292C11.2529 8.90334 11.6133 8.50834 12.0767 8.49668C12.0929 8.49626 12.1092 8.49626 12.1254 8.49626C13.4867 8.49626 15.0113 10.4775 15.5446 11.4042C15.6979 11.6708 15.9846 11.8333 16.2946 11.8333H18.3667C18.9713 11.8333 19.3592 11.1921 19.0679 10.6675Z" fill="white"/>
</svg>
